<mxfile host="Electron" agent="Mozilla/5.0 (Macintosh; Intel Mac OS X 10_15_7) AppleWebKit/537.36 (KHTML, like Gecko) draw.io/26.0.4 Chrome/128.0.6613.186 Electron/32.2.5 Safari/537.36" version="26.0.4">
  <diagram name="Страница — 1" id="VRnNyK-upTEJbToL2yeQ">
    <mxGraphModel dx="1242" dy="811" grid="1" gridSize="10" guides="1" tooltips="1" connect="1" arrows="1" fold="1" page="1" pageScale="1" pageWidth="1169" pageHeight="827" math="0" shadow="0">
      <root>
        <mxCell id="0" />
        <mxCell id="1" parent="0" />
        <mxCell id="QBkCU-0-SVMECVzwR3Sa-12" value="" style="html=1;dashed=0;whiteSpace=wrap;shape=mxgraph.dfd.dataStoreID;align=left;spacingLeft=3;points=[[0,0],[0.5,0],[1,0],[0,0.5],[1,0.5],[0,1],[0.5,1],[1,1]];" vertex="1" parent="1">
          <mxGeometry x="1080" y="270" width="280" height="45" as="geometry" />
        </mxCell>
        <mxCell id="QBkCU-0-SVMECVzwR3Sa-13" value="" style="swimlane;fontStyle=0;childLayout=stackLayout;horizontal=1;startSize=20;fillColor=#ffffff;horizontalStack=0;resizeParent=1;resizeParentMax=0;resizeLast=0;collapsible=0;marginBottom=0;swimlaneFillColor=#ffffff;rounded=0;" vertex="1" parent="1">
          <mxGeometry x="680" y="130" width="180" height="60" as="geometry" />
        </mxCell>
        <mxCell id="QBkCU-0-SVMECVzwR3Sa-14" value="Обработка запроса и получение данных" style="text;whiteSpace=wrap;align=center;" vertex="1" parent="QBkCU-0-SVMECVzwR3Sa-13">
          <mxGeometry y="20" width="180" height="40" as="geometry" />
        </mxCell>
        <mxCell id="QBkCU-0-SVMECVzwR3Sa-16" value="Данные по клиентам" style="text;whiteSpace=wrap;align=center;" vertex="1" parent="1">
          <mxGeometry x="1110" y="276.25" width="250" height="32.5" as="geometry" />
        </mxCell>
        <mxCell id="QBkCU-0-SVMECVzwR3Sa-19" value="Данные для отчетов" style="endArrow=classic;html=1;rounded=0;exitX=1;exitY=0.25;exitDx=0;exitDy=0;entryX=0;entryY=0.5;entryDx=0;entryDy=0;" edge="1" parent="1" source="QBkCU-0-SVMECVzwR3Sa-14" target="QBkCU-0-SVMECVzwR3Sa-12">
          <mxGeometry y="15" width="50" height="50" relative="1" as="geometry">
            <mxPoint x="860" y="-5" as="sourcePoint" />
            <mxPoint x="960" y="160" as="targetPoint" />
            <mxPoint as="offset" />
          </mxGeometry>
        </mxCell>
        <mxCell id="QBkCU-0-SVMECVzwR3Sa-38" value="" style="html=1;dashed=0;whiteSpace=wrap;shape=mxgraph.dfd.dataStoreID;align=left;spacingLeft=3;points=[[0,0],[0.5,0],[1,0],[0,0.5],[1,0.5],[0,1],[0.5,1],[1,1]];" vertex="1" parent="1">
          <mxGeometry x="1080" y="457.5" width="280" height="45" as="geometry" />
        </mxCell>
        <mxCell id="QBkCU-0-SVMECVzwR3Sa-39" value="Медицинские данные" style="text;whiteSpace=wrap;align=center;" vertex="1" parent="1">
          <mxGeometry x="1110" y="463.75" width="250" height="32.5" as="geometry" />
        </mxCell>
        <mxCell id="QBkCU-0-SVMECVzwR3Sa-40" value="" style="html=1;dashed=0;whiteSpace=wrap;shape=mxgraph.dfd.dataStoreID;align=left;spacingLeft=3;points=[[0,0],[0.5,0],[1,0],[0,0.5],[1,0.5],[0,1],[0.5,1],[1,1]];" vertex="1" parent="1">
          <mxGeometry x="1080" y="350" width="280" height="45" as="geometry" />
        </mxCell>
        <mxCell id="QBkCU-0-SVMECVzwR3Sa-41" value="Финансовые данные" style="text;whiteSpace=wrap;align=center;" vertex="1" parent="1">
          <mxGeometry x="1110" y="356.25" width="250" height="32.5" as="geometry" />
        </mxCell>
        <mxCell id="QBkCU-0-SVMECVzwR3Sa-42" value="" style="html=1;dashed=0;whiteSpace=wrap;shape=mxgraph.dfd.dataStoreID;align=left;spacingLeft=3;points=[[0,0],[0.5,0],[1,0],[0,0.5],[1,0.5],[0,1],[0.5,1],[1,1]];" vertex="1" parent="1">
          <mxGeometry x="1080" y="110" width="280" height="45" as="geometry" />
        </mxCell>
        <mxCell id="QBkCU-0-SVMECVzwR3Sa-43" value="Данные по персоналу" style="text;whiteSpace=wrap;align=center;" vertex="1" parent="1">
          <mxGeometry x="1110" y="116.25" width="250" height="32.5" as="geometry" />
        </mxCell>
        <mxCell id="QBkCU-0-SVMECVzwR3Sa-44" value="" style="html=1;dashed=0;whiteSpace=wrap;shape=mxgraph.dfd.dataStoreID;align=left;spacingLeft=3;points=[[0,0],[0.5,0],[1,0],[0,0.5],[1,0.5],[0,1],[0.5,1],[1,1]];" vertex="1" parent="1">
          <mxGeometry x="1080" y="180" width="280" height="45" as="geometry" />
        </mxCell>
        <mxCell id="QBkCU-0-SVMECVzwR3Sa-45" value="Данные по инвентаризации" style="text;whiteSpace=wrap;align=center;" vertex="1" parent="1">
          <mxGeometry x="1110" y="186.25" width="250" height="32.5" as="geometry" />
        </mxCell>
        <mxCell id="QBkCU-0-SVMECVzwR3Sa-46" value="Пользователи витрины данных" style="html=1;dashed=0;whiteSpace=wrap;rounded=0;" vertex="1" parent="1">
          <mxGeometry x="450" y="135" width="100" height="50" as="geometry" />
        </mxCell>
        <mxCell id="QBkCU-0-SVMECVzwR3Sa-47" value="Данные для отчетов" style="endArrow=classic;html=1;rounded=0;exitX=1;exitY=0.5;exitDx=0;exitDy=0;entryX=0;entryY=0.25;entryDx=0;entryDy=0;" edge="1" parent="1" source="QBkCU-0-SVMECVzwR3Sa-46" target="QBkCU-0-SVMECVzwR3Sa-14">
          <mxGeometry y="15" width="50" height="50" relative="1" as="geometry">
            <mxPoint x="570" y="548" as="sourcePoint" />
            <mxPoint x="690" y="170" as="targetPoint" />
            <mxPoint as="offset" />
          </mxGeometry>
        </mxCell>
        <mxCell id="QBkCU-0-SVMECVzwR3Sa-48" value="Данные для отчетов" style="endArrow=classic;html=1;rounded=0;exitX=1;exitY=0.25;exitDx=0;exitDy=0;entryX=0;entryY=0.5;entryDx=0;entryDy=0;" edge="1" parent="1" source="QBkCU-0-SVMECVzwR3Sa-14" target="QBkCU-0-SVMECVzwR3Sa-40">
          <mxGeometry y="15" width="50" height="50" relative="1" as="geometry">
            <mxPoint x="870" y="170" as="sourcePoint" />
            <mxPoint x="1090" y="171" as="targetPoint" />
            <mxPoint as="offset" />
          </mxGeometry>
        </mxCell>
        <mxCell id="QBkCU-0-SVMECVzwR3Sa-49" value="Данные для отчетов" style="endArrow=classic;html=1;rounded=0;exitX=1;exitY=0.25;exitDx=0;exitDy=0;entryX=0;entryY=0.5;entryDx=0;entryDy=0;" edge="1" parent="1" source="QBkCU-0-SVMECVzwR3Sa-14" target="QBkCU-0-SVMECVzwR3Sa-42">
          <mxGeometry y="15" width="50" height="50" relative="1" as="geometry">
            <mxPoint x="880" y="180" as="sourcePoint" />
            <mxPoint x="1100" y="181" as="targetPoint" />
            <mxPoint as="offset" />
          </mxGeometry>
        </mxCell>
        <mxCell id="QBkCU-0-SVMECVzwR3Sa-50" value="Данные для отчетов" style="endArrow=classic;html=1;rounded=0;exitX=1;exitY=0.25;exitDx=0;exitDy=0;entryX=0;entryY=0.5;entryDx=0;entryDy=0;" edge="1" parent="1" source="QBkCU-0-SVMECVzwR3Sa-14" target="QBkCU-0-SVMECVzwR3Sa-44">
          <mxGeometry y="15" width="50" height="50" relative="1" as="geometry">
            <mxPoint x="890" y="190" as="sourcePoint" />
            <mxPoint x="1110" y="191" as="targetPoint" />
            <mxPoint as="offset" />
          </mxGeometry>
        </mxCell>
        <mxCell id="QBkCU-0-SVMECVzwR3Sa-51" value="Пользователи медицинской системы" style="html=1;dashed=0;whiteSpace=wrap;rounded=0;" vertex="1" parent="1">
          <mxGeometry x="450" y="374" width="100" height="50" as="geometry" />
        </mxCell>
        <mxCell id="QBkCU-0-SVMECVzwR3Sa-54" value="" style="swimlane;fontStyle=0;childLayout=stackLayout;horizontal=1;startSize=20;fillColor=#ffffff;horizontalStack=0;resizeParent=1;resizeParentMax=0;resizeLast=0;collapsible=0;marginBottom=0;swimlaneFillColor=#ffffff;rounded=0;" vertex="1" parent="1">
          <mxGeometry x="680" y="450" width="180" height="60" as="geometry" />
        </mxCell>
        <mxCell id="QBkCU-0-SVMECVzwR3Sa-55" value="Работа с медицинскими данными" style="text;whiteSpace=wrap;align=center;" vertex="1" parent="QBkCU-0-SVMECVzwR3Sa-54">
          <mxGeometry y="20" width="180" height="40" as="geometry" />
        </mxCell>
        <mxCell id="QBkCU-0-SVMECVzwR3Sa-56" value="Медицинские данные" style="endArrow=classic;html=1;rounded=0;exitX=1;exitY=0.5;exitDx=0;exitDy=0;entryX=0;entryY=0.5;entryDx=0;entryDy=0;" edge="1" parent="1" source="QBkCU-0-SVMECVzwR3Sa-51" target="QBkCU-0-SVMECVzwR3Sa-54">
          <mxGeometry y="15" width="50" height="50" relative="1" as="geometry">
            <mxPoint x="560" y="442" as="sourcePoint" />
            <mxPoint x="680" y="442" as="targetPoint" />
            <mxPoint as="offset" />
          </mxGeometry>
        </mxCell>
        <mxCell id="QBkCU-0-SVMECVzwR3Sa-57" value="Медицинские данные" style="endArrow=classic;html=1;rounded=0;exitX=1;exitY=0.25;exitDx=0;exitDy=0;entryX=0;entryY=0.5;entryDx=0;entryDy=0;" edge="1" parent="1" source="QBkCU-0-SVMECVzwR3Sa-55" target="QBkCU-0-SVMECVzwR3Sa-38">
          <mxGeometry x="-0.1273" y="6" width="50" height="50" relative="1" as="geometry">
            <mxPoint x="860" y="251.25" as="sourcePoint" />
            <mxPoint x="980" y="251.25" as="targetPoint" />
            <mxPoint as="offset" />
          </mxGeometry>
        </mxCell>
        <mxCell id="QBkCU-0-SVMECVzwR3Sa-58" value="" style="swimlane;fontStyle=0;childLayout=stackLayout;horizontal=1;startSize=20;fillColor=#ffffff;horizontalStack=0;resizeParent=1;resizeParentMax=0;resizeLast=0;collapsible=0;marginBottom=0;swimlaneFillColor=#ffffff;rounded=0;" vertex="1" parent="1">
          <mxGeometry x="680" y="273.75" width="180" height="60" as="geometry" />
        </mxCell>
        <mxCell id="QBkCU-0-SVMECVzwR3Sa-59" value="Работа с финансовыми данными" style="text;whiteSpace=wrap;align=center;" vertex="1" parent="QBkCU-0-SVMECVzwR3Sa-58">
          <mxGeometry y="20" width="180" height="40" as="geometry" />
        </mxCell>
        <mxCell id="QBkCU-0-SVMECVzwR3Sa-60" value="Финансовые данные&lt;div&gt;&lt;br&gt;&lt;/div&gt;" style="endArrow=classic;html=1;rounded=0;exitX=1;exitY=0.5;exitDx=0;exitDy=0;entryX=0;entryY=0.25;entryDx=0;entryDy=0;" edge="1" parent="1" source="QBkCU-0-SVMECVzwR3Sa-51" target="QBkCU-0-SVMECVzwR3Sa-59">
          <mxGeometry x="-0.2945" y="11" width="50" height="50" relative="1" as="geometry">
            <mxPoint x="570" y="398" as="sourcePoint" />
            <mxPoint x="690" y="452" as="targetPoint" />
            <mxPoint as="offset" />
          </mxGeometry>
        </mxCell>
        <mxCell id="QBkCU-0-SVMECVzwR3Sa-61" value="Финансовые данные&lt;div&gt;&lt;br&gt;&lt;/div&gt;" style="endArrow=classic;html=1;rounded=0;exitX=1;exitY=0.25;exitDx=0;exitDy=0;entryX=0;entryY=0.5;entryDx=0;entryDy=0;" edge="1" parent="1" source="QBkCU-0-SVMECVzwR3Sa-59" target="QBkCU-0-SVMECVzwR3Sa-40">
          <mxGeometry x="-0.1277" y="6" width="50" height="50" relative="1" as="geometry">
            <mxPoint x="870" y="454" as="sourcePoint" />
            <mxPoint x="1090" y="453" as="targetPoint" />
            <mxPoint as="offset" />
          </mxGeometry>
        </mxCell>
        <mxCell id="QBkCU-0-SVMECVzwR3Sa-62" value="" style="swimlane;fontStyle=0;childLayout=stackLayout;horizontal=1;startSize=20;fillColor=#ffffff;horizontalStack=0;resizeParent=1;resizeParentMax=0;resizeLast=0;collapsible=0;marginBottom=0;swimlaneFillColor=#ffffff;rounded=0;" vertex="1" parent="1">
          <mxGeometry x="680" y="354" width="180" height="60" as="geometry" />
        </mxCell>
        <mxCell id="QBkCU-0-SVMECVzwR3Sa-63" value="Работа с данными по клиентам" style="text;whiteSpace=wrap;align=center;" vertex="1" parent="QBkCU-0-SVMECVzwR3Sa-62">
          <mxGeometry y="20" width="180" height="40" as="geometry" />
        </mxCell>
        <mxCell id="QBkCU-0-SVMECVzwR3Sa-64" value="Данные пациентов" style="endArrow=classic;html=1;rounded=0;exitX=1;exitY=0.5;exitDx=0;exitDy=0;entryX=0;entryY=0.25;entryDx=0;entryDy=0;" edge="1" parent="1" source="QBkCU-0-SVMECVzwR3Sa-51" target="QBkCU-0-SVMECVzwR3Sa-63">
          <mxGeometry x="0.2402" y="16" width="50" height="50" relative="1" as="geometry">
            <mxPoint x="570" y="398" as="sourcePoint" />
            <mxPoint x="690" y="452" as="targetPoint" />
            <mxPoint as="offset" />
          </mxGeometry>
        </mxCell>
        <mxCell id="QBkCU-0-SVMECVzwR3Sa-65" value="Данные пациентов" style="endArrow=classic;html=1;rounded=0;exitX=1;exitY=0.25;exitDx=0;exitDy=0;entryX=0;entryY=0.5;entryDx=0;entryDy=0;" edge="1" parent="1" source="QBkCU-0-SVMECVzwR3Sa-63" target="QBkCU-0-SVMECVzwR3Sa-12">
          <mxGeometry x="-0.2596" y="-14" width="50" height="50" relative="1" as="geometry">
            <mxPoint x="870" y="454" as="sourcePoint" />
            <mxPoint x="1090" y="453" as="targetPoint" />
            <mxPoint as="offset" />
          </mxGeometry>
        </mxCell>
        <mxCell id="QBkCU-0-SVMECVzwR3Sa-66" value="ИИ-сервисы" style="html=1;dashed=0;whiteSpace=wrap;rounded=0;" vertex="1" parent="1">
          <mxGeometry x="450" y="455" width="100" height="50" as="geometry" />
        </mxCell>
        <mxCell id="QBkCU-0-SVMECVzwR3Sa-67" value="Медицинские данные" style="endArrow=classic;html=1;rounded=0;exitX=1;exitY=0.5;exitDx=0;exitDy=0;entryX=0;entryY=0.25;entryDx=0;entryDy=0;" edge="1" parent="1" source="QBkCU-0-SVMECVzwR3Sa-66" target="QBkCU-0-SVMECVzwR3Sa-55">
          <mxGeometry y="15" width="50" height="50" relative="1" as="geometry">
            <mxPoint x="570" y="398" as="sourcePoint" />
            <mxPoint x="690" y="452" as="targetPoint" />
            <mxPoint as="offset" />
          </mxGeometry>
        </mxCell>
        <mxCell id="QBkCU-0-SVMECVzwR3Sa-69" value="ФинТех&amp;nbsp;&lt;div&gt;сервисы&lt;/div&gt;" style="html=1;dashed=0;whiteSpace=wrap;rounded=0;" vertex="1" parent="1">
          <mxGeometry x="450" y="278.75" width="100" height="50" as="geometry" />
        </mxCell>
        <mxCell id="QBkCU-0-SVMECVzwR3Sa-70" value="Финансовые данные&lt;div&gt;&lt;br&gt;&lt;/div&gt;" style="endArrow=classic;html=1;rounded=0;exitX=1;exitY=0.5;exitDx=0;exitDy=0;entryX=0;entryY=0.25;entryDx=0;entryDy=0;" edge="1" parent="1" source="QBkCU-0-SVMECVzwR3Sa-69" target="QBkCU-0-SVMECVzwR3Sa-59">
          <mxGeometry x="-0.0769" y="14" width="50" height="50" relative="1" as="geometry">
            <mxPoint x="570" y="398" as="sourcePoint" />
            <mxPoint x="680" y="360" as="targetPoint" />
            <mxPoint as="offset" />
          </mxGeometry>
        </mxCell>
        <mxCell id="QBkCU-0-SVMECVzwR3Sa-71" value="Пользователи BI-системы" style="html=1;dashed=0;whiteSpace=wrap;rounded=0;" vertex="1" parent="1">
          <mxGeometry x="450" y="210" width="100" height="50" as="geometry" />
        </mxCell>
        <mxCell id="QBkCU-0-SVMECVzwR3Sa-72" value="Данные для отчетов" style="endArrow=classic;html=1;rounded=0;exitX=1;exitY=0.5;exitDx=0;exitDy=0;entryX=0;entryY=0.25;entryDx=0;entryDy=0;" edge="1" parent="1" source="QBkCU-0-SVMECVzwR3Sa-71" target="QBkCU-0-SVMECVzwR3Sa-14">
          <mxGeometry x="-0.0744" width="50" height="50" relative="1" as="geometry">
            <mxPoint x="560" y="170" as="sourcePoint" />
            <mxPoint x="690" y="170" as="targetPoint" />
            <mxPoint y="-1" as="offset" />
          </mxGeometry>
        </mxCell>
      </root>
    </mxGraphModel>
  </diagram>
</mxfile>
